<mxfile host="app.diagrams.net" agent="Mozilla/5.0 (Windows NT 10.0; Win64; x64) AppleWebKit/537.36 (KHTML, like Gecko) Chrome/135.0.0.0 Safari/537.36" version="26.2.14">
  <diagram name="Страница — 1" id="XLZ8a2x_ipBU6Eq3fvFZ">
    <mxGraphModel dx="3387" dy="2212" grid="1" gridSize="10" guides="1" tooltips="1" connect="1" arrows="1" fold="1" page="1" pageScale="1" pageWidth="827" pageHeight="1169" math="0" shadow="0">
      <root>
        <mxCell id="0" />
        <mxCell id="1" parent="0" />
        <mxCell id="FcFjMqbY5WAz-j7tGgKp-8" value="&lt;p style=&quot;margin:0px;margin-top:4px;text-align:center;&quot;&gt;&lt;i&gt;&amp;lt;&amp;lt;Interface&amp;gt;&amp;gt;&lt;/i&gt;&lt;br&gt;&lt;b&gt;ConfigParser&lt;/b&gt;&lt;/p&gt;&lt;hr size=&quot;1&quot; style=&quot;border-style:solid;&quot;&gt;&lt;p style=&quot;margin:0px;margin-left:4px;&quot;&gt;+ parse(file_path: Str): Dict&lt;/p&gt;" style="verticalAlign=top;align=left;overflow=fill;html=1;whiteSpace=wrap;" parent="1" vertex="1">
          <mxGeometry x="150" y="220" width="190" height="70" as="geometry" />
        </mxCell>
        <mxCell id="FcFjMqbY5WAz-j7tGgKp-13" value="&lt;b&gt;JsonConfigParser&lt;/b&gt;" style="html=1;whiteSpace=wrap;" parent="1" vertex="1">
          <mxGeometry x="110" y="350" width="110" height="50" as="geometry" />
        </mxCell>
        <mxCell id="FcFjMqbY5WAz-j7tGgKp-14" value="&lt;b&gt;XmlConfigParser&lt;/b&gt;" style="html=1;whiteSpace=wrap;" parent="1" vertex="1">
          <mxGeometry x="270" y="350" width="110" height="50" as="geometry" />
        </mxCell>
        <mxCell id="FcFjMqbY5WAz-j7tGgKp-15" value="" style="endArrow=block;dashed=1;endFill=0;endSize=12;html=1;rounded=0;exitX=0.5;exitY=0;exitDx=0;exitDy=0;entryX=0.5;entryY=1;entryDx=0;entryDy=0;" parent="1" source="FcFjMqbY5WAz-j7tGgKp-13" target="FcFjMqbY5WAz-j7tGgKp-8" edge="1">
          <mxGeometry width="160" relative="1" as="geometry">
            <mxPoint x="170" y="290" as="sourcePoint" />
            <mxPoint x="330" y="290" as="targetPoint" />
          </mxGeometry>
        </mxCell>
        <mxCell id="FcFjMqbY5WAz-j7tGgKp-16" value="" style="endArrow=block;dashed=1;endFill=0;endSize=12;html=1;rounded=0;exitX=0.5;exitY=0;exitDx=0;exitDy=0;entryX=0.5;entryY=1;entryDx=0;entryDy=0;" parent="1" source="FcFjMqbY5WAz-j7tGgKp-14" target="FcFjMqbY5WAz-j7tGgKp-8" edge="1">
          <mxGeometry width="160" relative="1" as="geometry">
            <mxPoint x="175" y="360" as="sourcePoint" />
            <mxPoint x="255" y="300" as="targetPoint" />
          </mxGeometry>
        </mxCell>
        <mxCell id="FcFjMqbY5WAz-j7tGgKp-17" value="ConfigParserFactory" style="swimlane;fontStyle=1;align=center;verticalAlign=top;childLayout=stackLayout;horizontal=1;startSize=26;horizontalStack=0;resizeParent=1;resizeParentMax=0;resizeLast=0;collapsible=1;marginBottom=0;whiteSpace=wrap;html=1;" parent="1" vertex="1">
          <mxGeometry x="410" y="220" width="260" height="86" as="geometry" />
        </mxCell>
        <mxCell id="FcFjMqbY5WAz-j7tGgKp-29" value="- parsers: Dict" style="text;strokeColor=none;fillColor=none;align=left;verticalAlign=top;spacingLeft=4;spacingRight=4;overflow=hidden;rotatable=0;points=[[0,0.5],[1,0.5]];portConstraint=eastwest;whiteSpace=wrap;html=1;" parent="FcFjMqbY5WAz-j7tGgKp-17" vertex="1">
          <mxGeometry y="26" width="260" height="26" as="geometry" />
        </mxCell>
        <mxCell id="FcFjMqbY5WAz-j7tGgKp-28" value="" style="line;strokeWidth=1;fillColor=none;align=left;verticalAlign=middle;spacingTop=-1;spacingLeft=3;spacingRight=3;rotatable=0;labelPosition=right;points=[];portConstraint=eastwest;strokeColor=inherit;" parent="FcFjMqbY5WAz-j7tGgKp-17" vertex="1">
          <mxGeometry y="52" width="260" height="8" as="geometry" />
        </mxCell>
        <mxCell id="FcFjMqbY5WAz-j7tGgKp-20" value="+ createParser(extension: str): ConfigParser" style="text;strokeColor=none;fillColor=none;align=left;verticalAlign=top;spacingLeft=4;spacingRight=4;overflow=hidden;rotatable=0;points=[[0,0.5],[1,0.5]];portConstraint=eastwest;whiteSpace=wrap;html=1;" parent="FcFjMqbY5WAz-j7tGgKp-17" vertex="1">
          <mxGeometry y="60" width="260" height="26" as="geometry" />
        </mxCell>
        <mxCell id="FcFjMqbY5WAz-j7tGgKp-30" value="" style="endArrow=open;endSize=12;dashed=1;html=1;rounded=0;entryX=1;entryY=0;entryDx=0;entryDy=0;exitX=0;exitY=0;exitDx=0;exitDy=0;" parent="1" source="FcFjMqbY5WAz-j7tGgKp-17" target="FcFjMqbY5WAz-j7tGgKp-8" edge="1">
          <mxGeometry width="160" relative="1" as="geometry">
            <mxPoint x="120" y="130" as="sourcePoint" />
            <mxPoint x="200" y="170" as="targetPoint" />
          </mxGeometry>
        </mxCell>
        <mxCell id="FcFjMqbY5WAz-j7tGgKp-31" value="&lt;p style=&quot;margin:0px;margin-top:4px;text-align:center;&quot;&gt;&lt;i&gt;&amp;lt;&amp;lt;Interface&amp;gt;&amp;gt;&lt;/i&gt;&lt;br&gt;&lt;b&gt;ModelVisitor&lt;/b&gt;&lt;/p&gt;&lt;hr size=&quot;1&quot; style=&quot;border-style:solid;&quot;&gt;&lt;p style=&quot;margin:0px;margin-left:4px;&quot;&gt;+ visit_class(class_info: ClassInfo): Void&lt;/p&gt;&lt;p style=&quot;margin:0px;margin-left:4px;&quot;&gt;+ visit_attribute(attribute: Attribute): Void&lt;/p&gt;&lt;p style=&quot;margin:0px;margin-left:4px;&quot;&gt;+ visit_relation(relation: Relation): Void&lt;/p&gt;" style="verticalAlign=top;align=left;overflow=fill;html=1;whiteSpace=wrap;" parent="1" vertex="1">
          <mxGeometry x="100" y="650" width="230" height="100" as="geometry" />
        </mxCell>
        <mxCell id="FcFjMqbY5WAz-j7tGgKp-34" value="XmlConfigVisitor" style="swimlane;fontStyle=1;align=center;verticalAlign=top;childLayout=stackLayout;horizontal=1;startSize=26;horizontalStack=0;resizeParent=1;resizeParentMax=0;resizeLast=0;collapsible=1;marginBottom=0;whiteSpace=wrap;html=1;" parent="1" vertex="1">
          <mxGeometry x="-130" y="800" width="260" height="112" as="geometry" />
        </mxCell>
        <mxCell id="FcFjMqbY5WAz-j7tGgKp-35" value="- root_element: Element" style="text;strokeColor=none;fillColor=none;align=left;verticalAlign=top;spacingLeft=4;spacingRight=4;overflow=hidden;rotatable=0;points=[[0,0.5],[1,0.5]];portConstraint=eastwest;whiteSpace=wrap;html=1;" parent="FcFjMqbY5WAz-j7tGgKp-34" vertex="1">
          <mxGeometry y="26" width="260" height="26" as="geometry" />
        </mxCell>
        <mxCell id="FcFjMqbY5WAz-j7tGgKp-39" value="- current_element: Element" style="text;strokeColor=none;fillColor=none;align=left;verticalAlign=top;spacingLeft=4;spacingRight=4;overflow=hidden;rotatable=0;points=[[0,0.5],[1,0.5]];portConstraint=eastwest;whiteSpace=wrap;html=1;" parent="FcFjMqbY5WAz-j7tGgKp-34" vertex="1">
          <mxGeometry y="52" width="260" height="26" as="geometry" />
        </mxCell>
        <mxCell id="FcFjMqbY5WAz-j7tGgKp-36" value="" style="line;strokeWidth=1;fillColor=none;align=left;verticalAlign=middle;spacingTop=-1;spacingLeft=3;spacingRight=3;rotatable=0;labelPosition=right;points=[];portConstraint=eastwest;strokeColor=inherit;" parent="FcFjMqbY5WAz-j7tGgKp-34" vertex="1">
          <mxGeometry y="78" width="260" height="8" as="geometry" />
        </mxCell>
        <mxCell id="FcFjMqbY5WAz-j7tGgKp-37" value="+ generate(model: Dict): Element" style="text;strokeColor=none;fillColor=none;align=left;verticalAlign=top;spacingLeft=4;spacingRight=4;overflow=hidden;rotatable=0;points=[[0,0.5],[1,0.5]];portConstraint=eastwest;whiteSpace=wrap;html=1;" parent="FcFjMqbY5WAz-j7tGgKp-34" vertex="1">
          <mxGeometry y="86" width="260" height="26" as="geometry" />
        </mxCell>
        <mxCell id="FcFjMqbY5WAz-j7tGgKp-40" value="" style="endArrow=block;dashed=1;endFill=0;endSize=12;html=1;rounded=0;exitX=0.5;exitY=0;exitDx=0;exitDy=0;entryX=0;entryY=1;entryDx=0;entryDy=0;" parent="1" source="FcFjMqbY5WAz-j7tGgKp-34" target="FcFjMqbY5WAz-j7tGgKp-31" edge="1">
          <mxGeometry width="160" relative="1" as="geometry">
            <mxPoint y="780" as="sourcePoint" />
            <mxPoint x="80" y="720" as="targetPoint" />
          </mxGeometry>
        </mxCell>
        <mxCell id="FcFjMqbY5WAz-j7tGgKp-41" value="MetaJsonVisitor" style="swimlane;fontStyle=1;align=center;verticalAlign=top;childLayout=stackLayout;horizontal=1;startSize=26;horizontalStack=0;resizeParent=1;resizeParentMax=0;resizeLast=0;collapsible=1;marginBottom=0;whiteSpace=wrap;html=1;" parent="1" vertex="1">
          <mxGeometry x="284" y="800" width="260" height="112" as="geometry" />
        </mxCell>
        <mxCell id="FcFjMqbY5WAz-j7tGgKp-42" value="- meta_data: List" style="text;strokeColor=none;fillColor=none;align=left;verticalAlign=top;spacingLeft=4;spacingRight=4;overflow=hidden;rotatable=0;points=[[0,0.5],[1,0.5]];portConstraint=eastwest;whiteSpace=wrap;html=1;" parent="FcFjMqbY5WAz-j7tGgKp-41" vertex="1">
          <mxGeometry y="26" width="260" height="26" as="geometry" />
        </mxCell>
        <mxCell id="FcFjMqbY5WAz-j7tGgKp-43" value="- current_class: Dict" style="text;strokeColor=none;fillColor=none;align=left;verticalAlign=top;spacingLeft=4;spacingRight=4;overflow=hidden;rotatable=0;points=[[0,0.5],[1,0.5]];portConstraint=eastwest;whiteSpace=wrap;html=1;" parent="FcFjMqbY5WAz-j7tGgKp-41" vertex="1">
          <mxGeometry y="52" width="260" height="26" as="geometry" />
        </mxCell>
        <mxCell id="FcFjMqbY5WAz-j7tGgKp-44" value="" style="line;strokeWidth=1;fillColor=none;align=left;verticalAlign=middle;spacingTop=-1;spacingLeft=3;spacingRight=3;rotatable=0;labelPosition=right;points=[];portConstraint=eastwest;strokeColor=inherit;" parent="FcFjMqbY5WAz-j7tGgKp-41" vertex="1">
          <mxGeometry y="78" width="260" height="8" as="geometry" />
        </mxCell>
        <mxCell id="FcFjMqbY5WAz-j7tGgKp-45" value="+ generate(model: Dict): Element" style="text;strokeColor=none;fillColor=none;align=left;verticalAlign=top;spacingLeft=4;spacingRight=4;overflow=hidden;rotatable=0;points=[[0,0.5],[1,0.5]];portConstraint=eastwest;whiteSpace=wrap;html=1;" parent="FcFjMqbY5WAz-j7tGgKp-41" vertex="1">
          <mxGeometry y="86" width="260" height="26" as="geometry" />
        </mxCell>
        <mxCell id="FcFjMqbY5WAz-j7tGgKp-46" value="&lt;p style=&quot;margin:0px;margin-top:4px;text-align:center;&quot;&gt;&lt;i&gt;&amp;lt;&amp;lt;Interface&amp;gt;&amp;gt;&lt;/i&gt;&lt;br&gt;&lt;b&gt;ModelElement&lt;/b&gt;&lt;/p&gt;&lt;hr size=&quot;1&quot; style=&quot;border-style:solid;&quot;&gt;&lt;p style=&quot;margin:0px;margin-left:4px;&quot;&gt;+ accept(visitor: ModelVisitor)&lt;/p&gt;" style="verticalAlign=top;align=left;overflow=fill;html=1;whiteSpace=wrap;" parent="1" vertex="1">
          <mxGeometry x="414" y="650" width="230" height="70" as="geometry" />
        </mxCell>
        <mxCell id="FcFjMqbY5WAz-j7tGgKp-47" value="" style="endArrow=open;endSize=12;dashed=1;html=1;rounded=0;entryX=1;entryY=0;entryDx=0;entryDy=0;exitX=0;exitY=0;exitDx=0;exitDy=0;" parent="1" source="FcFjMqbY5WAz-j7tGgKp-46" target="FcFjMqbY5WAz-j7tGgKp-31" edge="1">
          <mxGeometry width="160" relative="1" as="geometry">
            <mxPoint x="320" y="730" as="sourcePoint" />
            <mxPoint x="480" y="730" as="targetPoint" />
          </mxGeometry>
        </mxCell>
        <mxCell id="FcFjMqbY5WAz-j7tGgKp-49" value="" style="endArrow=block;dashed=1;endFill=0;endSize=12;html=1;rounded=0;exitX=0.5;exitY=0;exitDx=0;exitDy=0;entryX=1;entryY=1;entryDx=0;entryDy=0;" parent="1" source="FcFjMqbY5WAz-j7tGgKp-41" target="FcFjMqbY5WAz-j7tGgKp-31" edge="1">
          <mxGeometry width="160" relative="1" as="geometry">
            <mxPoint x="10" y="810" as="sourcePoint" />
            <mxPoint x="110" y="760" as="targetPoint" />
          </mxGeometry>
        </mxCell>
        <mxCell id="FcFjMqbY5WAz-j7tGgKp-50" value="Relation" style="swimlane;fontStyle=1;align=center;verticalAlign=top;childLayout=stackLayout;horizontal=1;startSize=26;horizontalStack=0;resizeParent=1;resizeParentMax=0;resizeLast=0;collapsible=1;marginBottom=0;whiteSpace=wrap;html=1;" parent="1" vertex="1">
          <mxGeometry x="720" y="590" width="260" height="130" as="geometry" />
        </mxCell>
        <mxCell id="FcFjMqbY5WAz-j7tGgKp-51" value="- source: str" style="text;strokeColor=none;fillColor=none;align=left;verticalAlign=top;spacingLeft=4;spacingRight=4;overflow=hidden;rotatable=0;points=[[0,0.5],[1,0.5]];portConstraint=eastwest;whiteSpace=wrap;html=1;" parent="FcFjMqbY5WAz-j7tGgKp-50" vertex="1">
          <mxGeometry y="26" width="260" height="26" as="geometry" />
        </mxCell>
        <mxCell id="FcFjMqbY5WAz-j7tGgKp-52" value="- target: str" style="text;strokeColor=none;fillColor=none;align=left;verticalAlign=top;spacingLeft=4;spacingRight=4;overflow=hidden;rotatable=0;points=[[0,0.5],[1,0.5]];portConstraint=eastwest;whiteSpace=wrap;html=1;" parent="FcFjMqbY5WAz-j7tGgKp-50" vertex="1">
          <mxGeometry y="52" width="260" height="26" as="geometry" />
        </mxCell>
        <mxCell id="FcFjMqbY5WAz-j7tGgKp-65" value="- source_multiplicity: str" style="text;strokeColor=none;fillColor=none;align=left;verticalAlign=top;spacingLeft=4;spacingRight=4;overflow=hidden;rotatable=0;points=[[0,0.5],[1,0.5]];portConstraint=eastwest;whiteSpace=wrap;html=1;" parent="FcFjMqbY5WAz-j7tGgKp-50" vertex="1">
          <mxGeometry y="78" width="260" height="26" as="geometry" />
        </mxCell>
        <mxCell id="FcFjMqbY5WAz-j7tGgKp-66" value="- target_multiplicity: str" style="text;strokeColor=none;fillColor=none;align=left;verticalAlign=top;spacingLeft=4;spacingRight=4;overflow=hidden;rotatable=0;points=[[0,0.5],[1,0.5]];portConstraint=eastwest;whiteSpace=wrap;html=1;" parent="FcFjMqbY5WAz-j7tGgKp-50" vertex="1">
          <mxGeometry y="104" width="260" height="26" as="geometry" />
        </mxCell>
        <mxCell id="FcFjMqbY5WAz-j7tGgKp-55" value="ClassInfo" style="swimlane;fontStyle=1;align=center;verticalAlign=top;childLayout=stackLayout;horizontal=1;startSize=26;horizontalStack=0;resizeParent=1;resizeParentMax=0;resizeLast=0;collapsible=1;marginBottom=0;whiteSpace=wrap;html=1;" parent="1" vertex="1">
          <mxGeometry x="720" y="770" width="260" height="182" as="geometry" />
        </mxCell>
        <mxCell id="FcFjMqbY5WAz-j7tGgKp-56" value="- name: str" style="text;strokeColor=none;fillColor=none;align=left;verticalAlign=top;spacingLeft=4;spacingRight=4;overflow=hidden;rotatable=0;points=[[0,0.5],[1,0.5]];portConstraint=eastwest;whiteSpace=wrap;html=1;" parent="FcFjMqbY5WAz-j7tGgKp-55" vertex="1">
          <mxGeometry y="26" width="260" height="26" as="geometry" />
        </mxCell>
        <mxCell id="FcFjMqbY5WAz-j7tGgKp-57" value="- is_root: bool" style="text;strokeColor=none;fillColor=none;align=left;verticalAlign=top;spacingLeft=4;spacingRight=4;overflow=hidden;rotatable=0;points=[[0,0.5],[1,0.5]];portConstraint=eastwest;whiteSpace=wrap;html=1;" parent="FcFjMqbY5WAz-j7tGgKp-55" vertex="1">
          <mxGeometry y="52" width="260" height="26" as="geometry" />
        </mxCell>
        <mxCell id="FcFjMqbY5WAz-j7tGgKp-67" value="- documentation: str" style="text;strokeColor=none;fillColor=none;align=left;verticalAlign=top;spacingLeft=4;spacingRight=4;overflow=hidden;rotatable=0;points=[[0,0.5],[1,0.5]];portConstraint=eastwest;whiteSpace=wrap;html=1;" parent="FcFjMqbY5WAz-j7tGgKp-55" vertex="1">
          <mxGeometry y="78" width="260" height="26" as="geometry" />
        </mxCell>
        <mxCell id="FcFjMqbY5WAz-j7tGgKp-68" value="- attributes: List" style="text;strokeColor=none;fillColor=none;align=left;verticalAlign=top;spacingLeft=4;spacingRight=4;overflow=hidden;rotatable=0;points=[[0,0.5],[1,0.5]];portConstraint=eastwest;whiteSpace=wrap;html=1;" parent="FcFjMqbY5WAz-j7tGgKp-55" vertex="1">
          <mxGeometry y="104" width="260" height="26" as="geometry" />
        </mxCell>
        <mxCell id="FcFjMqbY5WAz-j7tGgKp-69" value="- source_relations: List" style="text;strokeColor=none;fillColor=none;align=left;verticalAlign=top;spacingLeft=4;spacingRight=4;overflow=hidden;rotatable=0;points=[[0,0.5],[1,0.5]];portConstraint=eastwest;whiteSpace=wrap;html=1;" parent="FcFjMqbY5WAz-j7tGgKp-55" vertex="1">
          <mxGeometry y="130" width="260" height="26" as="geometry" />
        </mxCell>
        <mxCell id="FcFjMqbY5WAz-j7tGgKp-70" value="- target_relations: List" style="text;strokeColor=none;fillColor=none;align=left;verticalAlign=top;spacingLeft=4;spacingRight=4;overflow=hidden;rotatable=0;points=[[0,0.5],[1,0.5]];portConstraint=eastwest;whiteSpace=wrap;html=1;" parent="FcFjMqbY5WAz-j7tGgKp-55" vertex="1">
          <mxGeometry y="156" width="260" height="26" as="geometry" />
        </mxCell>
        <mxCell id="FcFjMqbY5WAz-j7tGgKp-60" value="Attribute" style="swimlane;fontStyle=1;align=center;verticalAlign=top;childLayout=stackLayout;horizontal=1;startSize=26;horizontalStack=0;resizeParent=1;resizeParentMax=0;resizeLast=0;collapsible=1;marginBottom=0;whiteSpace=wrap;html=1;" parent="1" vertex="1">
          <mxGeometry x="720" y="480" width="260" height="78" as="geometry" />
        </mxCell>
        <mxCell id="FcFjMqbY5WAz-j7tGgKp-61" value="- name: str" style="text;strokeColor=none;fillColor=none;align=left;verticalAlign=top;spacingLeft=4;spacingRight=4;overflow=hidden;rotatable=0;points=[[0,0.5],[1,0.5]];portConstraint=eastwest;whiteSpace=wrap;html=1;" parent="FcFjMqbY5WAz-j7tGgKp-60" vertex="1">
          <mxGeometry y="26" width="260" height="26" as="geometry" />
        </mxCell>
        <mxCell id="FcFjMqbY5WAz-j7tGgKp-62" value="- type: str" style="text;strokeColor=none;fillColor=none;align=left;verticalAlign=top;spacingLeft=4;spacingRight=4;overflow=hidden;rotatable=0;points=[[0,0.5],[1,0.5]];portConstraint=eastwest;whiteSpace=wrap;html=1;" parent="FcFjMqbY5WAz-j7tGgKp-60" vertex="1">
          <mxGeometry y="52" width="260" height="26" as="geometry" />
        </mxCell>
        <mxCell id="FcFjMqbY5WAz-j7tGgKp-71" value="" style="endArrow=block;dashed=1;endFill=0;endSize=12;html=1;rounded=0;exitX=0.01;exitY=1.077;exitDx=0;exitDy=0;entryX=1;entryY=0;entryDx=0;entryDy=0;exitPerimeter=0;" parent="1" source="FcFjMqbY5WAz-j7tGgKp-62" target="FcFjMqbY5WAz-j7tGgKp-46" edge="1">
          <mxGeometry width="160" relative="1" as="geometry">
            <mxPoint x="674" y="635" as="sourcePoint" />
            <mxPoint x="590" y="585" as="targetPoint" />
          </mxGeometry>
        </mxCell>
        <mxCell id="FcFjMqbY5WAz-j7tGgKp-72" value="" style="endArrow=block;dashed=1;endFill=0;endSize=12;html=1;rounded=0;exitX=0;exitY=0.5;exitDx=0;exitDy=0;entryX=1;entryY=0.5;entryDx=0;entryDy=0;" parent="1" source="FcFjMqbY5WAz-j7tGgKp-65" target="FcFjMqbY5WAz-j7tGgKp-46" edge="1">
          <mxGeometry width="160" relative="1" as="geometry">
            <mxPoint x="733" y="570" as="sourcePoint" />
            <mxPoint x="654" y="660" as="targetPoint" />
          </mxGeometry>
        </mxCell>
        <mxCell id="FcFjMqbY5WAz-j7tGgKp-73" value="" style="endArrow=block;dashed=1;endFill=0;endSize=12;html=1;rounded=0;exitX=0;exitY=0;exitDx=0;exitDy=0;entryX=1;entryY=1;entryDx=0;entryDy=0;" parent="1" source="FcFjMqbY5WAz-j7tGgKp-55" target="FcFjMqbY5WAz-j7tGgKp-46" edge="1">
          <mxGeometry width="160" relative="1" as="geometry">
            <mxPoint x="730" y="691" as="sourcePoint" />
            <mxPoint x="654" y="695" as="targetPoint" />
          </mxGeometry>
        </mxCell>
        <mxCell id="FcFjMqbY5WAz-j7tGgKp-74" value="" style="endArrow=open;endSize=12;dashed=1;html=1;rounded=0;exitX=0.5;exitY=1;exitDx=0;exitDy=0;" parent="1" source="FcFjMqbY5WAz-j7tGgKp-31" edge="1">
          <mxGeometry width="160" relative="1" as="geometry">
            <mxPoint x="530" y="680" as="sourcePoint" />
            <mxPoint x="1000" y="720" as="targetPoint" />
            <Array as="points">
              <mxPoint x="215" y="1000" />
              <mxPoint x="1040" y="1000" />
              <mxPoint x="1040" y="720" />
            </Array>
          </mxGeometry>
        </mxCell>
        <mxCell id="FcFjMqbY5WAz-j7tGgKp-75" value="" style="strokeWidth=2;html=1;shape=mxgraph.flowchart.annotation_1;align=left;pointerEvents=1;rotation=-180;" parent="1" vertex="1">
          <mxGeometry x="990" y="485" width="10" height="465" as="geometry" />
        </mxCell>
        <mxCell id="FcFjMqbY5WAz-j7tGgKp-76" value="ModelProcessor" style="swimlane;fontStyle=1;align=center;verticalAlign=top;childLayout=stackLayout;horizontal=1;startSize=26;horizontalStack=0;resizeParent=1;resizeParentMax=0;resizeLast=0;collapsible=1;marginBottom=0;whiteSpace=wrap;html=1;" parent="1" vertex="1">
          <mxGeometry x="120" width="260" height="112" as="geometry" />
        </mxCell>
        <mxCell id="FcFjMqbY5WAz-j7tGgKp-77" value="- parser_factory: ConfigParserFactory" style="text;strokeColor=none;fillColor=none;align=left;verticalAlign=top;spacingLeft=4;spacingRight=4;overflow=hidden;rotatable=0;points=[[0,0.5],[1,0.5]];portConstraint=eastwest;whiteSpace=wrap;html=1;" parent="FcFjMqbY5WAz-j7tGgKp-76" vertex="1">
          <mxGeometry y="26" width="260" height="26" as="geometry" />
        </mxCell>
        <mxCell id="FcFjMqbY5WAz-j7tGgKp-78" value="- model_builder: ModelBuilder" style="text;strokeColor=none;fillColor=none;align=left;verticalAlign=top;spacingLeft=4;spacingRight=4;overflow=hidden;rotatable=0;points=[[0,0.5],[1,0.5]];portConstraint=eastwest;whiteSpace=wrap;html=1;" parent="FcFjMqbY5WAz-j7tGgKp-76" vertex="1">
          <mxGeometry y="52" width="260" height="26" as="geometry" />
        </mxCell>
        <mxCell id="FcFjMqbY5WAz-j7tGgKp-79" value="" style="line;strokeWidth=1;fillColor=none;align=left;verticalAlign=middle;spacingTop=-1;spacingLeft=3;spacingRight=3;rotatable=0;labelPosition=right;points=[];portConstraint=eastwest;strokeColor=inherit;" parent="FcFjMqbY5WAz-j7tGgKp-76" vertex="1">
          <mxGeometry y="78" width="260" height="8" as="geometry" />
        </mxCell>
        <mxCell id="FcFjMqbY5WAz-j7tGgKp-80" value="+ process_model(input_file: str): Dict" style="text;strokeColor=none;fillColor=none;align=left;verticalAlign=top;spacingLeft=4;spacingRight=4;overflow=hidden;rotatable=0;points=[[0,0.5],[1,0.5]];portConstraint=eastwest;whiteSpace=wrap;html=1;" parent="FcFjMqbY5WAz-j7tGgKp-76" vertex="1">
          <mxGeometry y="86" width="260" height="26" as="geometry" />
        </mxCell>
        <mxCell id="FcFjMqbY5WAz-j7tGgKp-81" value="" style="endArrow=open;endSize=12;dashed=1;html=1;rounded=0;entryX=0.5;entryY=0;entryDx=0;entryDy=0;exitX=0.481;exitY=0.998;exitDx=0;exitDy=0;exitPerimeter=0;" parent="1" source="FcFjMqbY5WAz-j7tGgKp-80" target="FcFjMqbY5WAz-j7tGgKp-8" edge="1">
          <mxGeometry width="160" relative="1" as="geometry">
            <mxPoint x="420" y="230" as="sourcePoint" />
            <mxPoint x="350" y="230" as="targetPoint" />
          </mxGeometry>
        </mxCell>
        <mxCell id="FcFjMqbY5WAz-j7tGgKp-87" value="&lt;p style=&quot;margin:0px;margin-top:4px;text-align:center;&quot;&gt;&lt;i&gt;&amp;lt;&amp;lt;Interface&amp;gt;&amp;gt;&lt;/i&gt;&lt;br&gt;&lt;b&gt;ModelBuilder&lt;/b&gt;&lt;/p&gt;&lt;hr size=&quot;1&quot; style=&quot;border-style:solid;&quot;&gt;&lt;p style=&quot;margin:0px;margin-left:4px;&quot;&gt;+ add_class(name: str, is_root: bool, documentation: str): ModelBuilder&lt;/p&gt;&lt;p style=&quot;margin:0px;margin-left:4px;&quot;&gt;+ add_attribute(class_name: str, attr_name: str, attr_type: str):&amp;nbsp;&lt;span style=&quot;background-color: transparent; color: light-dark(rgb(0, 0, 0), rgb(255, 255, 255));&quot;&gt;ModelBuilder&lt;/span&gt;&lt;/p&gt;&lt;p style=&quot;margin:0px;margin-left:4px;&quot;&gt;+ add_relation(&lt;span style=&quot;background-color: transparent;&quot;&gt;source: str, target: str,&amp;nbsp;&lt;/span&gt;&lt;span style=&quot;background-color: transparent; color: light-dark(rgb(0, 0, 0), rgb(255, 255, 255));&quot;&gt;source_multiplicity: str, target_multiplicity: str&lt;/span&gt;&lt;span style=&quot;background-color: transparent; color: light-dark(rgb(0, 0, 0), rgb(255, 255, 255));&quot;&gt;):&amp;nbsp;&lt;/span&gt;&lt;span style=&quot;background-color: transparent; color: light-dark(rgb(0, 0, 0), rgb(255, 255, 255));&quot;&gt;ModelBuilder&lt;/span&gt;&lt;/p&gt;&lt;p style=&quot;margin:0px;margin-left:4px;&quot;&gt;&lt;span style=&quot;background-color: transparent; color: light-dark(rgb(0, 0, 0), rgb(255, 255, 255));&quot;&gt;+ build(): Dict&lt;/span&gt;&lt;/p&gt;" style="verticalAlign=top;align=left;overflow=fill;html=1;whiteSpace=wrap;" parent="1" vertex="1">
          <mxGeometry x="680" width="530" height="110" as="geometry" />
        </mxCell>
        <mxCell id="FcFjMqbY5WAz-j7tGgKp-88" value="Builder" style="swimlane;fontStyle=1;align=center;verticalAlign=top;childLayout=stackLayout;horizontal=1;startSize=26;horizontalStack=0;resizeParent=1;resizeParentMax=0;resizeLast=0;collapsible=1;marginBottom=0;whiteSpace=wrap;html=1;" parent="1" vertex="1">
          <mxGeometry x="815" y="152" width="260" height="52" as="geometry" />
        </mxCell>
        <mxCell id="FcFjMqbY5WAz-j7tGgKp-89" value="- model: Dict" style="text;strokeColor=none;fillColor=none;align=left;verticalAlign=top;spacingLeft=4;spacingRight=4;overflow=hidden;rotatable=0;points=[[0,0.5],[1,0.5]];portConstraint=eastwest;whiteSpace=wrap;html=1;" parent="FcFjMqbY5WAz-j7tGgKp-88" vertex="1">
          <mxGeometry y="26" width="260" height="26" as="geometry" />
        </mxCell>
        <mxCell id="FcFjMqbY5WAz-j7tGgKp-92" value="" style="endArrow=block;dashed=1;endFill=0;endSize=12;html=1;rounded=0;exitX=0.5;exitY=0;exitDx=0;exitDy=0;entryX=0.5;entryY=1;entryDx=0;entryDy=0;" parent="1" source="FcFjMqbY5WAz-j7tGgKp-88" target="FcFjMqbY5WAz-j7tGgKp-87" edge="1">
          <mxGeometry width="160" relative="1" as="geometry">
            <mxPoint x="553" y="390" as="sourcePoint" />
            <mxPoint x="474" y="480" as="targetPoint" />
          </mxGeometry>
        </mxCell>
        <mxCell id="FcFjMqbY5WAz-j7tGgKp-93" value="ModelDirector" style="swimlane;fontStyle=1;align=center;verticalAlign=top;childLayout=stackLayout;horizontal=1;startSize=26;horizontalStack=0;resizeParent=1;resizeParentMax=0;resizeLast=0;collapsible=1;marginBottom=0;whiteSpace=wrap;html=1;" parent="1" vertex="1">
          <mxGeometry x="1280" width="260" height="86" as="geometry" />
        </mxCell>
        <mxCell id="FcFjMqbY5WAz-j7tGgKp-94" value="- builder: ModuleBuilder" style="text;strokeColor=none;fillColor=none;align=left;verticalAlign=top;spacingLeft=4;spacingRight=4;overflow=hidden;rotatable=0;points=[[0,0.5],[1,0.5]];portConstraint=eastwest;whiteSpace=wrap;html=1;" parent="FcFjMqbY5WAz-j7tGgKp-93" vertex="1">
          <mxGeometry y="26" width="260" height="26" as="geometry" />
        </mxCell>
        <mxCell id="FcFjMqbY5WAz-j7tGgKp-96" value="" style="line;strokeWidth=1;fillColor=none;align=left;verticalAlign=middle;spacingTop=-1;spacingLeft=3;spacingRight=3;rotatable=0;labelPosition=right;points=[];portConstraint=eastwest;strokeColor=inherit;" parent="FcFjMqbY5WAz-j7tGgKp-93" vertex="1">
          <mxGeometry y="52" width="260" height="8" as="geometry" />
        </mxCell>
        <mxCell id="FcFjMqbY5WAz-j7tGgKp-97" value="+ construct: Void" style="text;strokeColor=none;fillColor=none;align=left;verticalAlign=top;spacingLeft=4;spacingRight=4;overflow=hidden;rotatable=0;points=[[0,0.5],[1,0.5]];portConstraint=eastwest;whiteSpace=wrap;html=1;" parent="FcFjMqbY5WAz-j7tGgKp-93" vertex="1">
          <mxGeometry y="60" width="260" height="26" as="geometry" />
        </mxCell>
        <mxCell id="FcFjMqbY5WAz-j7tGgKp-95" value="" style="endArrow=open;endFill=1;endSize=12;html=1;rounded=0;entryX=1;entryY=0;entryDx=0;entryDy=0;exitX=0;exitY=0;exitDx=0;exitDy=0;" parent="1" source="FcFjMqbY5WAz-j7tGgKp-93" target="FcFjMqbY5WAz-j7tGgKp-87" edge="1">
          <mxGeometry width="160" relative="1" as="geometry">
            <mxPoint x="800" y="460" as="sourcePoint" />
            <mxPoint x="960" y="460" as="targetPoint" />
          </mxGeometry>
        </mxCell>
        <mxCell id="FcFjMqbY5WAz-j7tGgKp-98" value="" style="endArrow=open;endSize=12;dashed=1;html=1;rounded=0;entryX=0;entryY=0;entryDx=0;entryDy=0;exitX=1;exitY=0;exitDx=0;exitDy=0;" parent="1" source="FcFjMqbY5WAz-j7tGgKp-76" target="FcFjMqbY5WAz-j7tGgKp-87" edge="1">
          <mxGeometry width="160" relative="1" as="geometry">
            <mxPoint x="255" y="122" as="sourcePoint" />
            <mxPoint x="255" y="230" as="targetPoint" />
          </mxGeometry>
        </mxCell>
        <mxCell id="FcFjMqbY5WAz-j7tGgKp-99" value="Application" style="swimlane;fontStyle=1;align=center;verticalAlign=top;childLayout=stackLayout;horizontal=1;startSize=26;horizontalStack=0;resizeParent=1;resizeParentMax=0;resizeLast=0;collapsible=1;marginBottom=0;whiteSpace=wrap;html=1;" parent="1" vertex="1">
          <mxGeometry x="-543" width="260" height="242" as="geometry" />
        </mxCell>
        <mxCell id="FcFjMqbY5WAz-j7tGgKp-100" value="- model_processor: ModelProcessor" style="text;strokeColor=none;fillColor=none;align=left;verticalAlign=top;spacingLeft=4;spacingRight=4;overflow=hidden;rotatable=0;points=[[0,0.5],[1,0.5]];portConstraint=eastwest;whiteSpace=wrap;html=1;" parent="FcFjMqbY5WAz-j7tGgKp-99" vertex="1">
          <mxGeometry y="26" width="260" height="26" as="geometry" />
        </mxCell>
        <mxCell id="FcFjMqbY5WAz-j7tGgKp-104" value="- config_comaparator: ConfigComparator" style="text;strokeColor=none;fillColor=none;align=left;verticalAlign=top;spacingLeft=4;spacingRight=4;overflow=hidden;rotatable=0;points=[[0,0.5],[1,0.5]];portConstraint=eastwest;whiteSpace=wrap;html=1;" parent="FcFjMqbY5WAz-j7tGgKp-99" vertex="1">
          <mxGeometry y="52" width="260" height="26" as="geometry" />
        </mxCell>
        <mxCell id="FcFjMqbY5WAz-j7tGgKp-101" value="- output_generators: List" style="text;strokeColor=none;fillColor=none;align=left;verticalAlign=top;spacingLeft=4;spacingRight=4;overflow=hidden;rotatable=0;points=[[0,0.5],[1,0.5]];portConstraint=eastwest;whiteSpace=wrap;html=1;" parent="FcFjMqbY5WAz-j7tGgKp-99" vertex="1">
          <mxGeometry y="78" width="260" height="26" as="geometry" />
        </mxCell>
        <mxCell id="FcFjMqbY5WAz-j7tGgKp-106" value="- config: AppConfiguration&amp;nbsp;" style="text;strokeColor=none;fillColor=none;align=left;verticalAlign=top;spacingLeft=4;spacingRight=4;overflow=hidden;rotatable=0;points=[[0,0.5],[1,0.5]];portConstraint=eastwest;whiteSpace=wrap;html=1;" parent="FcFjMqbY5WAz-j7tGgKp-99" vertex="1">
          <mxGeometry y="104" width="260" height="26" as="geometry" />
        </mxCell>
        <mxCell id="FcFjMqbY5WAz-j7tGgKp-107" value="- config_processor: ConfigProcessor&amp;nbsp;" style="text;strokeColor=none;fillColor=none;align=left;verticalAlign=top;spacingLeft=4;spacingRight=4;overflow=hidden;rotatable=0;points=[[0,0.5],[1,0.5]];portConstraint=eastwest;whiteSpace=wrap;html=1;" parent="FcFjMqbY5WAz-j7tGgKp-99" vertex="1">
          <mxGeometry y="130" width="260" height="26" as="geometry" />
        </mxCell>
        <mxCell id="FcFjMqbY5WAz-j7tGgKp-102" value="" style="line;strokeWidth=1;fillColor=none;align=left;verticalAlign=middle;spacingTop=-1;spacingLeft=3;spacingRight=3;rotatable=0;labelPosition=right;points=[];portConstraint=eastwest;strokeColor=inherit;" parent="FcFjMqbY5WAz-j7tGgKp-99" vertex="1">
          <mxGeometry y="156" width="260" height="8" as="geometry" />
        </mxCell>
        <mxCell id="FcFjMqbY5WAz-j7tGgKp-103" value="+ run(): Void" style="text;strokeColor=none;fillColor=none;align=left;verticalAlign=top;spacingLeft=4;spacingRight=4;overflow=hidden;rotatable=0;points=[[0,0.5],[1,0.5]];portConstraint=eastwest;whiteSpace=wrap;html=1;" parent="FcFjMqbY5WAz-j7tGgKp-99" vertex="1">
          <mxGeometry y="164" width="260" height="26" as="geometry" />
        </mxCell>
        <mxCell id="qNrjY2vWBlWtk4YNLfsR-1" value="+ generate_output_files(model: Dict): Void" style="text;strokeColor=none;fillColor=none;align=left;verticalAlign=top;spacingLeft=4;spacingRight=4;overflow=hidden;rotatable=0;points=[[0,0.5],[1,0.5]];portConstraint=eastwest;whiteSpace=wrap;html=1;" vertex="1" parent="FcFjMqbY5WAz-j7tGgKp-99">
          <mxGeometry y="190" width="260" height="26" as="geometry" />
        </mxCell>
        <mxCell id="qNrjY2vWBlWtk4YNLfsR-2" value="+ process_configs(): Void" style="text;strokeColor=none;fillColor=none;align=left;verticalAlign=top;spacingLeft=4;spacingRight=4;overflow=hidden;rotatable=0;points=[[0,0.5],[1,0.5]];portConstraint=eastwest;whiteSpace=wrap;html=1;" vertex="1" parent="FcFjMqbY5WAz-j7tGgKp-99">
          <mxGeometry y="216" width="260" height="26" as="geometry" />
        </mxCell>
        <mxCell id="FcFjMqbY5WAz-j7tGgKp-108" value="ConfigComaparator" style="swimlane;fontStyle=1;align=center;verticalAlign=top;childLayout=stackLayout;horizontal=1;startSize=26;horizontalStack=0;resizeParent=1;resizeParentMax=0;resizeLast=0;collapsible=1;marginBottom=0;whiteSpace=wrap;html=1;" parent="1" vertex="1">
          <mxGeometry x="-1040" y="180" width="290" height="78" as="geometry" />
        </mxCell>
        <mxCell id="FcFjMqbY5WAz-j7tGgKp-115" value="+ compare_configs(original: Dict, patched: Dict): Dict" style="text;strokeColor=none;fillColor=none;align=left;verticalAlign=top;spacingLeft=4;spacingRight=4;overflow=hidden;rotatable=0;points=[[0,0.5],[1,0.5]];portConstraint=eastwest;whiteSpace=wrap;html=1;" parent="FcFjMqbY5WAz-j7tGgKp-108" vertex="1">
          <mxGeometry y="26" width="290" height="26" as="geometry" />
        </mxCell>
        <mxCell id="FcFjMqbY5WAz-j7tGgKp-116" value="+ apply_delta(original: Dict, delta: Dict): Dict" style="text;strokeColor=none;fillColor=none;align=left;verticalAlign=top;spacingLeft=4;spacingRight=4;overflow=hidden;rotatable=0;points=[[0,0.5],[1,0.5]];portConstraint=eastwest;whiteSpace=wrap;html=1;" parent="FcFjMqbY5WAz-j7tGgKp-108" vertex="1">
          <mxGeometry y="52" width="290" height="26" as="geometry" />
        </mxCell>
        <mxCell id="FcFjMqbY5WAz-j7tGgKp-125" value="" style="endArrow=open;endFill=1;endSize=12;html=1;rounded=0;entryX=0;entryY=0;entryDx=0;entryDy=0;exitX=1;exitY=0;exitDx=0;exitDy=0;" parent="1" source="FcFjMqbY5WAz-j7tGgKp-99" target="FcFjMqbY5WAz-j7tGgKp-76" edge="1">
          <mxGeometry width="160" relative="1" as="geometry">
            <mxPoint x="-220" y="86" as="sourcePoint" />
            <mxPoint x="-290" y="86" as="targetPoint" />
          </mxGeometry>
        </mxCell>
        <mxCell id="qNrjY2vWBlWtk4YNLfsR-3" value="AppConfiguration" style="swimlane;fontStyle=1;align=center;verticalAlign=top;childLayout=stackLayout;horizontal=1;startSize=26;horizontalStack=0;resizeParent=1;resizeParentMax=0;resizeLast=0;collapsible=1;marginBottom=0;whiteSpace=wrap;html=1;" vertex="1" parent="1">
          <mxGeometry x="-990" y="-210" width="290" height="156" as="geometry" />
        </mxCell>
        <mxCell id="qNrjY2vWBlWtk4YNLfsR-4" value="+ input_model: str" style="text;strokeColor=none;fillColor=none;align=left;verticalAlign=top;spacingLeft=4;spacingRight=4;overflow=hidden;rotatable=0;points=[[0,0.5],[1,0.5]];portConstraint=eastwest;whiteSpace=wrap;html=1;" vertex="1" parent="qNrjY2vWBlWtk4YNLfsR-3">
          <mxGeometry y="26" width="290" height="26" as="geometry" />
        </mxCell>
        <mxCell id="qNrjY2vWBlWtk4YNLfsR-5" value="+ input_config_paths: List" style="text;strokeColor=none;fillColor=none;align=left;verticalAlign=top;spacingLeft=4;spacingRight=4;overflow=hidden;rotatable=0;points=[[0,0.5],[1,0.5]];portConstraint=eastwest;whiteSpace=wrap;html=1;" vertex="1" parent="qNrjY2vWBlWtk4YNLfsR-3">
          <mxGeometry y="52" width="290" height="26" as="geometry" />
        </mxCell>
        <mxCell id="qNrjY2vWBlWtk4YNLfsR-6" value="+ output_dir: str" style="text;strokeColor=none;fillColor=none;align=left;verticalAlign=top;spacingLeft=4;spacingRight=4;overflow=hidden;rotatable=0;points=[[0,0.5],[1,0.5]];portConstraint=eastwest;whiteSpace=wrap;html=1;" vertex="1" parent="qNrjY2vWBlWtk4YNLfsR-3">
          <mxGeometry y="78" width="290" height="26" as="geometry" />
        </mxCell>
        <mxCell id="qNrjY2vWBlWtk4YNLfsR-7" value="+ output_paths: Dict" style="text;strokeColor=none;fillColor=none;align=left;verticalAlign=top;spacingLeft=4;spacingRight=4;overflow=hidden;rotatable=0;points=[[0,0.5],[1,0.5]];portConstraint=eastwest;whiteSpace=wrap;html=1;" vertex="1" parent="qNrjY2vWBlWtk4YNLfsR-3">
          <mxGeometry y="104" width="290" height="26" as="geometry" />
        </mxCell>
        <mxCell id="qNrjY2vWBlWtk4YNLfsR-8" value="+ output_config_paths: List" style="text;strokeColor=none;fillColor=none;align=left;verticalAlign=top;spacingLeft=4;spacingRight=4;overflow=hidden;rotatable=0;points=[[0,0.5],[1,0.5]];portConstraint=eastwest;whiteSpace=wrap;html=1;" vertex="1" parent="qNrjY2vWBlWtk4YNLfsR-3">
          <mxGeometry y="130" width="290" height="26" as="geometry" />
        </mxCell>
        <mxCell id="qNrjY2vWBlWtk4YNLfsR-12" value="&lt;p style=&quot;margin:0px;margin-top:4px;text-align:center;&quot;&gt;&lt;i&gt;&amp;lt;&amp;lt;Interface&amp;gt;&amp;gt;&lt;/i&gt;&lt;br&gt;&lt;b&gt;OutputGenerator&lt;/b&gt;&lt;/p&gt;&lt;hr size=&quot;1&quot; style=&quot;border-style:solid;&quot;&gt;&lt;p style=&quot;margin:0px;margin-left:4px;&quot;&gt;+ generate(model: Dict, config: AppConfiguration): Void&lt;/p&gt;" style="verticalAlign=top;align=left;overflow=fill;html=1;whiteSpace=wrap;" vertex="1" parent="1">
          <mxGeometry x="-750" y="430" width="300" height="70" as="geometry" />
        </mxCell>
        <mxCell id="qNrjY2vWBlWtk4YNLfsR-14" value="XmlConfigOutputGenerator" style="swimlane;fontStyle=1;align=center;verticalAlign=top;childLayout=stackLayout;horizontal=1;startSize=26;horizontalStack=0;resizeParent=1;resizeParentMax=0;resizeLast=0;collapsible=1;marginBottom=0;whiteSpace=wrap;html=1;" vertex="1" parent="1">
          <mxGeometry x="-930" y="600" width="320" height="86" as="geometry" />
        </mxCell>
        <mxCell id="qNrjY2vWBlWtk4YNLfsR-15" value="- visitor: ModelVisitor" style="text;strokeColor=none;fillColor=none;align=left;verticalAlign=top;spacingLeft=4;spacingRight=4;overflow=hidden;rotatable=0;points=[[0,0.5],[1,0.5]];portConstraint=eastwest;whiteSpace=wrap;html=1;" vertex="1" parent="qNrjY2vWBlWtk4YNLfsR-14">
          <mxGeometry y="26" width="320" height="26" as="geometry" />
        </mxCell>
        <mxCell id="qNrjY2vWBlWtk4YNLfsR-16" value="" style="line;strokeWidth=1;fillColor=none;align=left;verticalAlign=middle;spacingTop=-1;spacingLeft=3;spacingRight=3;rotatable=0;labelPosition=right;points=[];portConstraint=eastwest;strokeColor=inherit;" vertex="1" parent="qNrjY2vWBlWtk4YNLfsR-14">
          <mxGeometry y="52" width="320" height="8" as="geometry" />
        </mxCell>
        <mxCell id="qNrjY2vWBlWtk4YNLfsR-17" value="+ indent(elem: ET.Element, level: int, indent_str: str): Void" style="text;strokeColor=none;fillColor=none;align=left;verticalAlign=top;spacingLeft=4;spacingRight=4;overflow=hidden;rotatable=0;points=[[0,0.5],[1,0.5]];portConstraint=eastwest;whiteSpace=wrap;html=1;" vertex="1" parent="qNrjY2vWBlWtk4YNLfsR-14">
          <mxGeometry y="60" width="320" height="26" as="geometry" />
        </mxCell>
        <mxCell id="qNrjY2vWBlWtk4YNLfsR-19" value="MetaJsonOutputGenerator" style="swimlane;fontStyle=1;align=center;verticalAlign=top;childLayout=stackLayout;horizontal=1;startSize=26;horizontalStack=0;resizeParent=1;resizeParentMax=0;resizeLast=0;collapsible=1;marginBottom=0;whiteSpace=wrap;html=1;" vertex="1" parent="1">
          <mxGeometry x="-560" y="600" width="320" height="52" as="geometry" />
        </mxCell>
        <mxCell id="qNrjY2vWBlWtk4YNLfsR-20" value="- visitor: ModelVisitor" style="text;strokeColor=none;fillColor=none;align=left;verticalAlign=top;spacingLeft=4;spacingRight=4;overflow=hidden;rotatable=0;points=[[0,0.5],[1,0.5]];portConstraint=eastwest;whiteSpace=wrap;html=1;" vertex="1" parent="qNrjY2vWBlWtk4YNLfsR-19">
          <mxGeometry y="26" width="320" height="26" as="geometry" />
        </mxCell>
        <mxCell id="qNrjY2vWBlWtk4YNLfsR-23" value="" style="endArrow=block;dashed=1;endFill=0;endSize=12;html=1;rounded=0;exitX=0.5;exitY=0;exitDx=0;exitDy=0;entryX=0;entryY=1;entryDx=0;entryDy=0;" edge="1" parent="1" source="qNrjY2vWBlWtk4YNLfsR-14" target="qNrjY2vWBlWtk4YNLfsR-12">
          <mxGeometry width="160" relative="1" as="geometry">
            <mxPoint x="-760" y="600" as="sourcePoint" />
            <mxPoint x="-660" y="550" as="targetPoint" />
          </mxGeometry>
        </mxCell>
        <mxCell id="qNrjY2vWBlWtk4YNLfsR-24" value="" style="endArrow=block;dashed=1;endFill=0;endSize=12;html=1;rounded=0;exitX=0.5;exitY=0;exitDx=0;exitDy=0;entryX=1;entryY=1;entryDx=0;entryDy=0;" edge="1" parent="1" source="qNrjY2vWBlWtk4YNLfsR-19" target="qNrjY2vWBlWtk4YNLfsR-12">
          <mxGeometry width="160" relative="1" as="geometry">
            <mxPoint x="-760" y="610" as="sourcePoint" />
            <mxPoint x="-740" y="510" as="targetPoint" />
          </mxGeometry>
        </mxCell>
        <mxCell id="qNrjY2vWBlWtk4YNLfsR-26" value="" style="endArrow=open;endSize=12;dashed=1;html=1;rounded=0;entryX=0;entryY=0;entryDx=0;entryDy=0;exitX=1;exitY=0;exitDx=0;exitDy=0;" edge="1" parent="1" source="qNrjY2vWBlWtk4YNLfsR-19" target="FcFjMqbY5WAz-j7tGgKp-31">
          <mxGeometry width="160" relative="1" as="geometry">
            <mxPoint x="-533" y="239" as="sourcePoint" />
            <mxPoint x="-590" y="440" as="targetPoint" />
            <Array as="points">
              <mxPoint x="100" y="600" />
            </Array>
          </mxGeometry>
        </mxCell>
        <mxCell id="qNrjY2vWBlWtk4YNLfsR-27" value="" style="endArrow=open;endSize=12;dashed=1;html=1;rounded=0;entryX=0;entryY=0.25;entryDx=0;entryDy=0;exitX=1;exitY=0.5;exitDx=0;exitDy=0;" edge="1" parent="1" source="qNrjY2vWBlWtk4YNLfsR-17" target="FcFjMqbY5WAz-j7tGgKp-31">
          <mxGeometry width="160" relative="1" as="geometry">
            <mxPoint x="-533" y="239" as="sourcePoint" />
            <mxPoint x="-590" y="440" as="targetPoint" />
          </mxGeometry>
        </mxCell>
        <mxCell id="qNrjY2vWBlWtk4YNLfsR-28" value="&lt;p style=&quot;margin:0px;margin-top:4px;text-align:center;&quot;&gt;&lt;i&gt;&amp;lt;&amp;lt;Interface&amp;gt;&amp;gt;&lt;/i&gt;&lt;br&gt;&lt;b&gt;ConfigProcessor&lt;/b&gt;&lt;/p&gt;&lt;hr size=&quot;1&quot; style=&quot;border-style:solid;&quot;&gt;&lt;p style=&quot;margin:0px;margin-left:4px;&quot;&gt;+ process(comparator: ConfigComparator, config: AppConfiguration): Void&lt;/p&gt;" style="verticalAlign=top;align=left;overflow=fill;html=1;whiteSpace=wrap;" vertex="1" parent="1">
          <mxGeometry x="-1350" y="430" width="410" height="70" as="geometry" />
        </mxCell>
        <mxCell id="qNrjY2vWBlWtk4YNLfsR-29" value="&lt;b&gt;JsonConfigProcess&lt;/b&gt;" style="html=1;whiteSpace=wrap;" vertex="1" parent="1">
          <mxGeometry x="-1215" y="570" width="140" height="50" as="geometry" />
        </mxCell>
        <mxCell id="qNrjY2vWBlWtk4YNLfsR-30" value="" style="endArrow=block;dashed=1;endFill=0;endSize=12;html=1;rounded=0;exitX=0.5;exitY=0;exitDx=0;exitDy=0;entryX=0.5;entryY=1;entryDx=0;entryDy=0;" edge="1" parent="1" source="qNrjY2vWBlWtk4YNLfsR-29" target="qNrjY2vWBlWtk4YNLfsR-28">
          <mxGeometry width="160" relative="1" as="geometry">
            <mxPoint x="-760" y="590" as="sourcePoint" />
            <mxPoint x="-740" y="490" as="targetPoint" />
          </mxGeometry>
        </mxCell>
        <mxCell id="qNrjY2vWBlWtk4YNLfsR-32" value="" style="endArrow=open;endFill=1;endSize=12;html=1;rounded=0;entryX=1;entryY=0.5;entryDx=0;entryDy=0;exitX=0;exitY=0;exitDx=0;exitDy=0;" edge="1" parent="1" source="FcFjMqbY5WAz-j7tGgKp-99" target="qNrjY2vWBlWtk4YNLfsR-8">
          <mxGeometry width="160" relative="1" as="geometry">
            <mxPoint x="-273" y="10" as="sourcePoint" />
            <mxPoint x="130" y="10" as="targetPoint" />
          </mxGeometry>
        </mxCell>
        <mxCell id="qNrjY2vWBlWtk4YNLfsR-34" value="" style="endArrow=open;html=1;endSize=12;startArrow=diamondThin;startSize=14;startFill=0;edgeStyle=orthogonalEdgeStyle;align=left;verticalAlign=bottom;rounded=0;exitX=0.432;exitY=1.003;exitDx=0;exitDy=0;exitPerimeter=0;entryX=0.5;entryY=0;entryDx=0;entryDy=0;" edge="1" parent="1" source="qNrjY2vWBlWtk4YNLfsR-2" target="qNrjY2vWBlWtk4YNLfsR-12">
          <mxGeometry x="-1" y="3" relative="1" as="geometry">
            <mxPoint x="-420" y="360" as="sourcePoint" />
            <mxPoint x="-400" y="250" as="targetPoint" />
          </mxGeometry>
        </mxCell>
        <mxCell id="qNrjY2vWBlWtk4YNLfsR-36" value="" style="endArrow=open;endFill=1;endSize=12;html=1;rounded=0;entryX=1;entryY=0;entryDx=0;entryDy=0;exitX=0;exitY=0.5;exitDx=0;exitDy=0;" edge="1" parent="1" source="FcFjMqbY5WAz-j7tGgKp-103" target="FcFjMqbY5WAz-j7tGgKp-108">
          <mxGeometry width="160" relative="1" as="geometry">
            <mxPoint x="-533" y="10" as="sourcePoint" />
            <mxPoint x="-690" y="-57" as="targetPoint" />
          </mxGeometry>
        </mxCell>
        <mxCell id="qNrjY2vWBlWtk4YNLfsR-37" value="" style="endArrow=open;endFill=1;endSize=12;html=1;rounded=0;entryX=1;entryY=0;entryDx=0;entryDy=0;exitX=0;exitY=0.5;exitDx=0;exitDy=0;" edge="1" parent="1" source="qNrjY2vWBlWtk4YNLfsR-2" target="qNrjY2vWBlWtk4YNLfsR-28">
          <mxGeometry width="160" relative="1" as="geometry">
            <mxPoint x="-533" y="187" as="sourcePoint" />
            <mxPoint x="-740" y="190" as="targetPoint" />
          </mxGeometry>
        </mxCell>
      </root>
    </mxGraphModel>
  </diagram>
</mxfile>
